<?xml version="1.0" encoding="UTF-8" standalone="no"?>
<!-- Created with Inkscape (http://www.inkscape.org/) -->

<svg
   width="32"
   viewBox="0 0 32 32"
   version="1.1"
   id="svg1"
   xml:space="preserve"
   height="32"
   inkscape:export-filename="favicon.png"
   inkscape:export-xdpi="96"
   inkscape:export-ydpi="96"
   inkscape:version="1.4 (86a8ad7, 2024-10-11)"
   sodipodi:docname="mathlamp_icon.svg"
   xmlns:inkscape="http://www.inkscape.org/namespaces/inkscape"
   xmlns:sodipodi="http://sodipodi.sourceforge.net/DTD/sodipodi-0.dtd"
   xmlns="http://www.w3.org/2000/svg"
   xmlns:svg="http://www.w3.org/2000/svg"><sodipodi:namedview
     id="namedview1"
     pagecolor="#ffffff"
     bordercolor="#000000"
     borderopacity="0.25"
     inkscape:showpageshadow="2"
     inkscape:pageopacity="0.0"
     inkscape:pagecheckerboard="0"
     inkscape:deskcolor="#d1d1d1"
     inkscape:document-units="px"
     inkscape:zoom="25.21875"
     inkscape:cx="16"
     inkscape:cy="16"
     inkscape:window-width="1920"
     inkscape:window-height="1009"
     inkscape:window-x="-8"
     inkscape:window-y="-8"
     inkscape:window-maximized="1"
     inkscape:current-layer="layer1" /><defs
     id="defs1"><inkscape:path-effect
       effect="spiro"
       id="path-effect14"
       is_visible="true"
       lpeversion="1" /><inkscape:path-effect
       effect="spiro"
       id="path-effect13"
       is_visible="true"
       lpeversion="1" /><inkscape:path-effect
       effect="spiro"
       id="path-effect12"
       is_visible="true"
       lpeversion="1" /><inkscape:path-effect
       effect="spiro"
       id="path-effect11"
       is_visible="true"
       lpeversion="1" /></defs><g
     inkscape:label="Camada 1"
     inkscape:groupmode="layer"
     id="layer1"><circle
       style="fill:#f0f418;fill-opacity:1;stroke:#f4b018;stroke-width:0.491;stroke-linejoin:round;stroke-miterlimit:4.5;stroke-dasharray:none;stroke-opacity:1"
       id="path6"
       cx="15.801734"
       cy="12.986369"
       r="10.858191" /><path
       id="path7"
       style="fill:#c2c2c0;fill-opacity:1;stroke:none;stroke-width:0.4;stroke-linejoin:round;stroke-miterlimit:4.5;stroke-dasharray:none"
       d="m 10.984148,24.227245 v 0.0059 a 0.81288725,0.81288725 0 0 0 -0.753907,0.808593 0.81288725,0.81288725 0 0 0 0.753907,0.808594 v 0.0039 h 9.537109 0.09766 v -0.0059 a 0.81288725,0.81288725 0 0 0 0.714844,-0.806641 0.81288725,0.81288725 0 0 0 -0.714844,-0.808593 v -0.0059 h -0.09766 z" /><path
       id="circle8"
       style="fill:#9d9d9b;fill-opacity:1;stroke:none;stroke-width:0.4;stroke-linejoin:round;stroke-miterlimit:4.5;stroke-dasharray:none"
       d="m 12.172647,26.131542 v 0.0039 a 0.81288725,0.81288725 0 0 0 -0.751953,0.808594 0.81288725,0.81288725 0 0 0 0.751953,0.808594 v 0.0039 h 6.742188 v -0.0039 a 0.81288725,0.81288725 0 0 0 0.05859,0.0039 0.81288725,0.81288725 0 0 0 0.8125,-0.8125 0.81288725,0.81288725 0 0 0 -0.8125,-0.8125 0.81288725,0.81288725 0 0 0 -0.05859,0.0039 v -0.0039 z" /><path
       id="circle10"
       style="fill:#4c4c4c;fill-opacity:1;stroke:none;stroke-width:0.4;stroke-linejoin:round;stroke-miterlimit:4.5;stroke-dasharray:none"
       d="m 13.163835,27.955761 v 0.0039 a 0.81288725,0.81288725 0 0 0 -0.751953,0.808594 0.81288725,0.81288725 0 0 0 0.751953,0.808594 v 0.0039 h 4.679688 v -0.01367 a 0.81288725,0.81288725 0 0 0 0.138672,0.01367 0.81288725,0.81288725 0 0 0 0.8125,-0.8125 0.81288725,0.81288725 0 0 0 -0.8125,-0.8125 0.81288725,0.81288725 0 0 0 -0.138672,0.01367 v -0.01367 z" /><path
       style="fill:none;fill-opacity:1;stroke:#f48318;stroke-width:0.658716;stroke-linecap:round;stroke-linejoin:round;stroke-miterlimit:4.5;stroke-dasharray:none;stroke-opacity:1"
       d="M 9.4642701,14.161201 C 10.489396,12.805751 12.352961,12.45829 14.171354,12.59759 l 3.39882,0.373412 c 1.03917,0.195356 1.700907,0.01328 2.327897,-0.203549"
       id="path15"
       sodipodi:nodetypes="cccc" /><path
       style="fill:none;fill-opacity:1;stroke:#f48318;stroke-width:0.648712;stroke-linecap:round;stroke-linejoin:round;stroke-miterlimit:4.5;stroke-dasharray:none;stroke-opacity:1"
       d="m 12.111264,22.142133 c 2.834561,-3.593067 2.191673,-6.500074 2.104059,-9.34759"
       id="path16"
       sodipodi:nodetypes="cc" /><path
       style="fill:none;fill-opacity:1;stroke:#f48318;stroke-width:0.648712;stroke-linecap:round;stroke-linejoin:round;stroke-miterlimit:4.5;stroke-dasharray:none;stroke-opacity:1"
       d="m 20.092035,21.692615 c -0.417581,0.76701 -1.549889,0.650896 -1.997772,0.149308 -1.98722,-2.225508 -0.826368,-6.01658 -0.536639,-8.71604"
       id="path17"
       sodipodi:nodetypes="csc" /></g></svg>
